{
  "accessors": [
    {
      "bufferView": 2,
      "componentType": 5126,
      "count": 2394,
      "max": [
        0.8200056552886963,
        0.8200055956840515,
        0.8200056552886963
      ],
      "min": [
        -0.8200056552886963,
        -0.8200055956840515,
        -0.8200056552886963
      ],
      "type": "VEC3"
    },
    {
      "bufferView": 2,
      "byteOffset": 28728,
      "componentType": 5126,
      "count": 2394,
      "max": [
        0.9855763912200928,
        0.9966369271278381,
        0.9966369271278381
      ],
      "min": [
        -0.9855794310569763,
        -0.9966369271278381,
        -0.9966369271278381
      ],
      "type": "VEC3"
    },
    {
      "bufferView": 3,
      "componentType": 5126,
      "count": 2394,
      "max": [
        1.0,
        1.0,
        0.7520930767059326,
        1.0
      ],
      "min": [
        -1.0,
        -1.0,
        -0.7171002626419067,
        -1.0
      ],
      "type": "VEC4"
    },
    {
      "bufferView": 1,
      "componentType": 5126,
      "count": 2394,
      "max": [
        0.9646648168563843,
        0.9686763286590576
      ],
      "min": [
        0.02466753125190735,
        0.028678864240646362
      ],
      "type": "VEC2"
    },
    {
      "bufferView": 0,
      "componentType": 5125,
      "count": 12672,
      "type": "SCALAR"
    },
    {
      "bufferView": 2,
      "byteOffset": 57456,
      "componentType": 5126,
      "count": 198,
      "max": [
        0.7458641529083252,
        0.7458641529083252,
        0.7458641529083252
      ],
      "min": [
        -0.7458641529083252,
        -0.7458641529083252,
        -0.7458641529083252
      ],
      "type": "VEC3"
    },
    {
      "bufferView": 2,
      "byteOffset": 59832,
      "componentType": 5126,
      "count": 198,
      "max": [
        1.0,
        1.0,
        1.0
      ],
      "min": [
        -1.0,
        -1.0,
        -1.0
      ],
      "type": "VEC3"
    },
    {
      "bufferView": 1,
      "byteOffset": 19152,
      "componentType": 5126,
      "count": 198,
      "max": [
        0.5320519208908081,
        0.5360523462295532
      ],
      "min": [
        0.4573010504245758,
        0.4613431394100189
      ],
      "type": "VEC2"
    },
    {
      "bufferView": 0,
      "byteOffset": 50688,
      "componentType": 5125,
      "count": 576,
      "type": "SCALAR"
    }
  ],
  "asset": {
    "extras": {
      "author": "assetfactory (https://sketchfab.com/assetfactory)",
      "license": "SKETCHFAB Standard (https://sketchfab.com/licenses)",
      "source": "https://sketchfab.com/3d-models/energy-sphere-game-prop-a44366b10a76416b841d88c3f16bbc2e",
      "title": "Energy sphere game prop"
    },
    "generator": "Sketchfab-16.33.0",
    "version": "2.0"
  },
  "bufferViews": [
    {
      "buffer": 0,
      "byteLength": 52992,
      "name": "floatBufferViews",
      "target": 34963
    },
    {
      "buffer": 0,
      "byteLength": 20736,
      "byteOffset": 52992,
      "byteStride": 8,
      "name": "floatBufferViews",
      "target": 34962
    },
    {
      "buffer": 0,
      "byteLength": 62208,
      "byteOffset": 73728,
      "byteStride": 12,
      "name": "floatBufferViews",
      "target": 34962
    },
    {
      "buffer": 0,
      "byteLength": 38304,
      "byteOffset": 135936,
      "byteStride": 16,
      "name": "floatBufferViews",
      "target": 34962
    }
  ],
  "buffers": [
    {
      "byteLength": 174240,
      "uri": "scene.bin"
    }
  ],
  "extensionsUsed": [
    "KHR_materials_emissive_strength",
    "KHR_materials_specular"
  ],
  "images": [
    {
      "uri": "textures/body_baseColor.png"
    },
    {
      "uri": "textures/body_metallicRoughness.png"
    },
    {
      "uri": "textures/body_normal.png"
    }
  ],
  "materials": [
    {
      "doubleSided": true,
      "name": "body",
      "normalTexture": {
        "index": 2
      },
      "pbrMetallicRoughness": {
        "baseColorTexture": {
          "index": 0
        },
        "metallicRoughnessTexture": {
          "index": 1
        }
      }
    },
    {
      "doubleSided": true,
      "emissiveFactor": [
        0.24863610260559732,
        0.07815172394660573,
        1.0
      ],
      "extensions": {
        "KHR_materials_emissive_strength": {
          "emissiveStrength": 6.811449330131292
        },
        "KHR_materials_specular": {
          "specularColorFactor": [
            1.0,
            1.0,
            1.0
          ],
          "specularFactor": 0.0
        }
      },
      "name": "light",
      "pbrMetallicRoughness": {
        "baseColorFactor": [
          0.0,
          0.9312377609082712,
          0.9899636880863927,
          1.0
        ]
      }
    }
  ],
  "meshes": [
    {
      "name": "Cube_body_0",
      "primitives": [
        {
          "attributes": {
            "NORMAL": 1,
            "POSITION": 0,
            "TANGENT": 2,
            "TEXCOORD_0": 3
          },
          "indices": 4,
          "material": 0,
          "mode": 4
        }
      ]
    },
    {
      "name": "Cube_light_0",
      "primitives": [
        {
          "attributes": {
            "NORMAL": 6,
            "POSITION": 5,
            "TEXCOORD_0": 7
          },
          "indices": 8,
          "material": 1,
          "mode": 4
        }
      ]
    }
  ],
  "nodes": [
    {
      "children": [
        1
      ],
      "matrix": [
        1.0,
        0.0,
        0.0,
        0.0,
        0.0,
        2.220446049250313e-16,
        -1.0,
        0.0,
        0.0,
        1.0,
        2.220446049250313e-16,
        0.0,
        0.0,
        0.0,
        0.0,
        1.0
      ],
      "name": "Sketchfab_model"
    },
    {
      "children": [
        2
      ],
      "matrix": [
        0.009999999776482582,
        0.0,
        0.0,
        0.0,
        0.0,
        0.0,
        0.009999999776482582,
        0.0,
        0.0,
        -0.009999999776482582,
        0.0,
        0.0,
        0.0,
        0.0,
        0.0,
        1.0
      ],
      "name": "1891d1e051cf4bdcb1c0c02db246e3ac.fbx"
    },
    {
      "children": [
        3
      ],
      "name": "RootNode"
    },
    {
      "children": [
        4,
        5
      ],
      "matrix": [
        100.0,
        0.0,
        0.0,
        0.0,
        0.0,
        -1.629206793918314e-05,
        -99.99999999999868,
        0.0,
        0.0,
        99.99999999999868,
        -1.629206793918314e-05,
        0.0,
        0.0,
        0.0,
        0.0,
        1.0
      ],
      "name": "Cube"
    },
    {
      "mesh": 0,
      "name": "Cube_body_0"
    },
    {
      "mesh": 1,
      "name": "Cube_light_0"
    }
  ],
  "samplers": [
    {
      "magFilter": 9729,
      "minFilter": 9987,
      "wrapS": 10497,
      "wrapT": 10497
    }
  ],
  "scene": 0,
  "scenes": [
    {
      "name": "Sketchfab_Scene",
      "nodes": [
        0
      ]
    }
  ],
  "textures": [
    {
      "sampler": 0,
      "source": 0
    },
    {
      "sampler": 0,
      "source": 1
    },
    {
      "sampler": 0,
      "source": 2
    }
  ]
}
